<svg id="Layer_2" data-name="Layer 2" xmlns="http://www.w3.org/2000/svg" xmlns:xlink="http://www.w3.org/1999/xlink" viewBox="0 0 400 300"><defs><linearGradient id="linear-gradient" x1="166.49" y1="226.36" x2="195.37" y2="167.09" gradientUnits="userSpaceOnUse"><stop offset="0" stop-color="#6182e0"/><stop offset="1"/></linearGradient><linearGradient id="linear-gradient-2" x1="45.67" y1="193.38" x2="68.47" y2="178.18" xlink:href="#linear-gradient"/></defs><title>PP</title><path d="M196.24,288.6,23.74,186.65c-5.49-3.08-10.2-8.15-4.85-11.46L192,75.41c2.6-1.61,6.54-2.66,9.18-1.13L382.28,179.37c5.49,3.19,6.48,12.1,1,15.29L219,288.44A22.94,22.94,0,0,1,196.24,288.6Z" fill="#6182e0"/><path d="M251.86,204.42l-75.72-43.78-73.74,44L176,245.55C201.09,231.49,226.71,218.39,251.86,204.42Z" opacity="0.32" fill="url(#linear-gradient)"/><path d="M157.43,213.06s.6,8.54,0,11.13-1.81,9-3.79,11.56-1.77,7.15,4.06,6.23,10.54-12.77,11.61-16-2.8-17.67-2.8-17.67" fill="#68e1fd"/><path d="M291.54,114.8C287.4,97.55,273,79,255.32,74.69a39.12,39.12,0,0,0-31.2,5.9c-10.57,7.33-13,18.54-19.07,29C193.76,129,165.39,138.76,158.59,160c-4.57,14.28,4.27,28.17,15.06,36.92,36.42,29.56,95.82,12.39,114.24-29.73C294.74,151.53,295.76,132.41,291.54,114.8Z" fill="#85c440"/><path d="M291.59,114.49C287.46,97.24,273,78.7,255.38,74.39c-.79-.19-1.59-.3-2.38-.44A36.5,36.5,0,0,1,264.54,83c10.8,12.76,12.49,31.25,11.62,47.33-.42,7.81-1.72,15.88-5.4,22.87C267,160.43,261.23,164,253.87,167c-6.75,2.73-12.81,5.28-18.65,9.69a57.9,57.9,0,0,1-11.33,7.16c-8.77,3.87-18.74,3.45-27.78.75-14.48-4.33-28.34-14.19-36.63-27.18-.3.74-.59,1.5-.83,2.27-4.57,14.28,4.27,28.17,15.06,36.92,36.42,29.56,95.82,12.39,114.24-29.73C294.8,151.22,295.82,132.11,291.59,114.49Z" fill="#6da937"/><path d="M197.24,126.34s-39.38,16.31-46.08,22-9.29,9.06-7.74,18.38,14,46.34,14,46.34a11.9,11.9,0,0,0,10.35-3.37l-4.7-43.36s30.56-10.48,39.37-14.89" fill="#37444d"/><path d="M173.07,118.31s-2.54,26.39-12.23,28.21-3.41-31.87-3.41-31.87" fill="#ea985c"/><path d="M168.39,231.45s-.75,15.25-2.12,16.77-8.06,2.43-7.75,5.78,8.21,3.5,12.16,2.13,8.21-9.58,10-13.08,2.43-3.5,1.52-5.63-5.47-12.19-5.47-12.19" fill="#68e1fd"/><path d="M205.53,134.56s-1.44-18.92,16.34-44.31c0,0,21.5,8.2,37.38,22,0,0-1,21.68-19.28,44.08C240,156.35,215,144.64,205.53,134.56Z" fill="#68e1fd"/><path d="M259.25,112.27s-7.91,3.33-13.14,14.9-11,23.1-6.14,29.18C240,156.35,255.49,140.71,259.25,112.27Z" opacity="0.27"/><path d="M232.67,138.8c-10.25-8.61-11.24-22.35-9-34.69a.78.78,0,0,0-1.53-.26C219.79,116.75,221,131,231.67,140A.78.78,0,0,0,232.67,138.8Z" opacity="0.27"/><path d="M202.3,137.19s-35.44,26.2-36.94,35.63,3,58.62,3,58.62,8,4.14,10.39,0,5.55-46.34,6.84-50.74,41.93-16.48,43.49-27.91-3.39-19-3.39-19" fill="#45535e"/><path d="M183,79.11c-1-.2-17.67,9.55-20.11,15.23s-5.48,20.31-5.48,20.31l15.64,3.66s3-10.76,4.27-10.76,10.56,5.48,12.39,10.76,3.66,12.59,3.66,12.59,2.64,8.73,15.64,10,16.86-3.66,16.86-3.66c-.3-7-.77-14-1.37-20.95-.48-5.64-1-11.28-1.85-16.89-1.55-10.74-6-22.57-18.41-23.91C194.81,74.44,183,79.11,183,79.11Z" fill="#fe4754"/><path d="M162.23,107.54s-13.63,27.73-10.65,34.94,10.5,6.11,13.63-1.1,4.54-31.18,4.54-31.18,7.68-4.54,8.93-9.4c0,0,2.82-1.45,3.89,0s1.92,2.62,2.88,2-2.35-7.78-5-9.06-7.36-1-8.74-.64S162.23,107.54,162.23,107.54Z" fill="#fcb273"/><path d="M183.11,96.54a6.39,6.39,0,0,0-4-.21c-.63.13-.36,1.09.27,1,1.35-.27,2.83-.41,4,.54a.49.49,0,0,0,.53.08C183.61,97.47,183.36,97,183.11,96.54Z" fill="#93603a"/><path d="M180.64,93.73a5.8,5.8,0,0,0-3.71.13c-.6.23-.34,1.19.27,1a5,5,0,0,1,3.51,0c.42.15.66-.26.59-.6A5.28,5.28,0,0,0,180.64,93.73Z" fill="#93603a"/><path d="M209.82,110.66l0,6.24c-.19.57-.38,13.55-2.67,16s-25.2,20.81-26.72,21.76-10.12,3.63-13,6.11-4.39,3.44-4.39,5.54a8.24,8.24,0,0,0,2.29,6.49c2.29,2.67,2.54,1.89,3,1.22a1.42,1.42,0,0,0,2.16,1.18c1.27-.55,1.41-1.14,1.37-1.48a.91.91,0,0,0,1.33.47c1.18-.5.76-5,1.68-5.8s8.33-5,9.59-6.9c0,0,29.06-14.09,34.7-20.9,4.75-5.74,4.72-24.79,4.59-30.68A30.15,30.15,0,0,1,209.82,110.66Z" fill="#fcb273"/><path d="M171.82,167.34a2.55,2.55,0,0,1,.67-1.34c.36-.53-.5-1-.86-.5-.8,1.17-1.08,1.28-.87,2.76l.79,5.79c.09.63,1.05.36,1-.27l-.57-4.18A7.45,7.45,0,0,1,171.82,167.34Z" fill="#93603a"/><path d="M169.62,174.8a42.14,42.14,0,0,1-.67-4.46c-.1-1.08-.6-3.43.42-4.24.51-.4-.21-1.1-.71-.71-1.11.87-.89,2.36-.82,3.62a43.34,43.34,0,0,0,.81,6C168.78,175.69,169.75,175.43,169.62,174.8Z" fill="#93603a"/><path d="M167.88,174.82a41.49,41.49,0,0,1-1.19-4c-.25-1-1.2-3.78-.43-4.63.43-.47-.27-1.18-.71-.71-.87,1-.51,2.19-.3,3.36a39.9,39.9,0,0,0,1.48,5.69A1.79,1.79,0,0,0,167.88,174.82Z" fill="#93603a"/><path d="M224.6,108.53c-3.32.69-14.22,3.51-16.11.12-1-1.86-1-5.47-1.34-7.58l-1.48-8.33c-.22-1.27-2.15-.73-1.93.53l2.15,12.12c.3,1.67.13,5,1.67,6.19s5.48.44,7.35.32a73.4,73.4,0,0,0,10.23-1.45C226.39,110.2,225.85,108.27,224.6,108.53Z" fill="#c4273a"/><path d="M188.14,73.87l8.21,8.66s.2,8.88-6.9,10.27-9.93-5-9.93-5" fill="#ea985c"/><path d="M188.78,79.58s2.86-9.79-2.25-15.95-9.94-6.69-14.32-5.94-5,3.08-7.83,3.87-7.55-.14-7.06,5,2.82,4.72,2.82,4.72-4.44-.49-2.52,4,6,8.65,12,5.77" fill="#1a1f25"/><path d="M188.36,77s1.7-6.25-.12-6.38-2.79,3.22-2.79,3.22a23.53,23.53,0,0,0-1.72-3.9c-5.32,3.52-12.94,2.82-18.91.92-1.42,1.73-1.17,6.38.1,8.79,0,0,7.79,17.17,16.44,13.42S188.36,77,188.36,77Z" fill="#fcb273"/><path d="M53.7,200.56l31.07-17.62L59.6,171.58,31.27,187.35C37.75,193,45.88,196.58,53.7,200.56Z" opacity="0.32" fill="url(#linear-gradient-2)"/><path d="M59.51,151.2s-5.06,34.56,16.7,34.68c20.91.11,15.51-35.1,15.51-35.1S76.52,137.56,59.51,151.2Z" fill="#68e1fd"/><path d="M59.51,151.2s-5.06,34.56,16.7,34.68c20.91.11,15.51-35.1,15.51-35.1S76.52,137.56,59.51,151.2Z" opacity="0.15"/><ellipse cx="75.56" cy="151.2" rx="16.08" ry="6.64" fill="#68e1fd"/><ellipse cx="75.56" cy="151.2" rx="16.08" ry="6.64" opacity="0.7"/><path d="M50.24,100.73S39,98,43.34,88.71C43.34,88.71,51,90.24,50.24,100.73Z" fill="#938f05"/><path d="M57.06,110.14s-1.55-8,4.67-11.19C61.73,99,66.74,107.3,57.06,110.14Z" fill="#938f05"/><path d="M64,122.36s-1.86-9.54,5.59-13.39C69.64,109,75.63,119,64,122.36Z" fill="#938f05"/><path d="M69.47,135.67s-1.86-9.54,5.59-13.39C75.06,122.29,81,132.28,69.47,135.67Z" fill="#938f05"/><path d="M56.38,110.35s-4-7.09-10.79-5.53C45.6,104.82,47.16,114.42,56.38,110.35Z" fill="#938f05"/><path d="M63.47,122.65s-5.06-8.29-13.16-6.11C50.31,116.54,52.63,128,63.47,122.65Z" fill="#938f05"/><path d="M68.84,135.79s-5.94-7.69-13.75-4.63C55.09,131.16,58.65,142.25,68.84,135.79Z" fill="#938f05"/><path d="M73,157.92h.15a7.75,7.75,0,0,1,1.57.12.77.77,0,0,0,0-.16A114.94,114.94,0,0,0,50.6,99.54c-.7-.88-1.93.36-1.23,1.23A112.83,112.83,0,0,1,73,157.89Z" fill="#42352f"/><path d="M99.57,116s9.62-2.31,5.92-10.31C105.49,105.64,98.87,107,99.57,116Z" fill="#938f05"/><path d="M93.72,124s1.33-6.84-4-9.6C89.71,114.43,85.42,121.59,93.72,124Z" fill="#938f05"/><path d="M87.72,134.51s1.59-8.18-4.8-11.48C82.93,123,77.79,131.6,87.72,134.51Z" fill="#938f05"/><path d="M83.08,145.93s1.59-8.18-4.8-11.48C78.28,134.45,73.14,143,83.08,145.93Z" fill="#938f05"/><path d="M94.3,124.21s3.39-6.08,9.25-4.75C103.55,119.46,102.21,127.7,94.3,124.21Z" fill="#938f05"/><path d="M88.22,134.76s4.34-7.11,11.29-5.24C99.51,129.52,97.52,139.31,88.22,134.76Z" fill="#938f05"/><path d="M83.61,146s5.1-6.59,11.79-4C95.4,142.06,92.35,151.58,83.61,146Z" fill="#938f05"/><path d="M99.26,114.93a98.55,98.55,0,0,0-19.63,42.86c.51-.08,1-.16,1.55-.21A96.78,96.78,0,0,1,100.32,116C100.91,115.24,99.86,114.18,99.26,114.93Z" fill="#42352f"/><path d="M341.34,125.69c-.08.16-.48,1.68-.8,1.36s-2,.4-2,.4l-4.69-6,.62-1.95h4.22" fill="#68e1fd"/><path d="M318.68,100l-.44-1.55-4.93-2.69v-8.4c0-.16,4.77,2.8,4.77,2.8l.22-.47a11.27,11.27,0,0,1,1.45-3.63l-3.47-6.41,4.41-3.35,3.3,6.61,0,0a7.51,7.51,0,0,1,3.64.06V76.63l6.31,3.5v6.64a27.92,27.92,0,0,1,3.37,3.88l3.81-2.43,4.3,8.18L342,99.1l.29,1.37a37.48,37.48,0,0,1,1.05,4.42l5.06,2.79V116l-4.82-2.87a10.84,10.84,0,0,1-1.56,4.29l3.61,6.13L341.09,127l-3.22-6.31h-4V127l-6-3.67v-6.2a24.88,24.88,0,0,1-3.63-4.5l-3.62,2.48-4.37-8.35,3.63-2.68-.36-1.25C319.18,101.9,318.91,100.94,318.68,100Z" fill="#68e1fd"/><polyline points="307.24 90.84 312.82 87.47 314.21 89.53 312.06 94.05" fill="#68e1fd"/><polyline points="314.54 118.65 318.67 116.94 318.67 114.44" fill="#68e1fd"/><polygon points="327.81 130.54 333.88 127.05 332.34 122.46 326.88 124.06 327.81 130.54" fill="#68e1fd"/><polygon points="320.69 76.28 314.62 79.78 317.95 86.41 321.59 86.47 322.43 79.78 320.69 76.28" fill="#68e1fd"/><ellipse cx="324.4" cy="105.22" rx="2.73" ry="4.7" transform="translate(-16.01 125.94) rotate(-21.45)" fill="#68e1fd"/><polygon points="333.96 80.13 327.9 83.62 321.59 80.12 327.65 76.63 333.96 80.13" fill="#68e1fd"/><polygon points="335.07 91.71 341.13 88.21 345.43 96.39 339.37 99.88 335.07 91.71" fill="#68e1fd"/><polygon points="345.67 123.58 339.61 127.08 335.03 130.54 341.09 127.05 345.67 123.58" fill="#68e1fd"/><path d="M341.34,125.69c-.08.16-.48,1.68-.8,1.36s-2,.4-2,.4l-4.69-6,.62-1.95h4.22" fill="#053855" opacity="0.44"/><path d="M318.68,100l-.44-1.55-4.93-2.69v-8.4c0-.16,4.77,2.8,4.77,2.8l.22-.47a11.27,11.27,0,0,1,1.45-3.63l-3.47-6.41,4.41-3.35,3.3,6.61,0,0a7.51,7.51,0,0,1,3.64.06V76.63l6.31,3.5v6.64a27.92,27.92,0,0,1,3.37,3.88l3.81-2.43,4.3,8.18L342,99.1l.29,1.37a37.48,37.48,0,0,1,1.05,4.42l5.06,2.79V116l-4.82-2.87a10.84,10.84,0,0,1-1.56,4.29l3.61,6.13L341.09,127l-3.22-6.31h-4V127l-6-3.67v-6.2a24.88,24.88,0,0,1-3.63-4.5l-3.62,2.48-4.37-8.35,3.63-2.68-.36-1.25C319.18,101.9,318.91,100.94,318.68,100Z" fill="#68e1fd"/><polyline points="307.24 90.84 312.82 87.47 314.21 89.53 312.06 94.05" fill="#053855" opacity="0.44"/><polyline points="314.54 118.65 318.67 116.94 318.67 114.44" fill="#68e1fd"/><polygon points="327.81 130.54 333.88 127.05 332.34 122.46 326.88 124.06 327.81 130.54" fill="#68e1fd"/><polygon points="320.69 76.28 314.62 79.78 317.95 86.41 321.59 86.47 322.43 79.78 320.69 76.28" fill="#68e1fd"/><ellipse cx="324.4" cy="105.22" rx="2.73" ry="4.7" transform="translate(-16.01 125.94) rotate(-21.45)" fill="#68e1fd"/><polygon points="335.07 91.71 341.13 88.21 345.43 96.39 339.37 99.88 335.07 91.71" fill="#68e1fd"/><polygon points="345.67 123.58 339.61 127.08 335.03 130.54 341.09 127.05 345.67 123.58" fill="#68e1fd"/><path d="M318.68,100l-.44-1.55-4.93-2.69v-8.4c0-.16,4.77,2.8,4.77,2.8l.22-.47a11.27,11.27,0,0,1,1.45-3.63l-3.47-6.41,4.41-3.35,3.3,6.61,0,0a7.51,7.51,0,0,1,3.64.06V76.63l6.31,3.5v6.64a27.92,27.92,0,0,1,3.37,3.88l3.81-2.43,4.3,8.18L342,99.1l.29,1.37a37.48,37.48,0,0,1,1.05,4.42l5.06,2.79V116l-4.82-2.87a10.84,10.84,0,0,1-1.56,4.29l3.61,6.13L341.09,127l-3.22-6.31h-4V127l-6-3.67v-6.2a24.88,24.88,0,0,1-3.63-4.5l-3.62,2.48-4.37-8.35,3.63-2.68-.36-1.25C319.18,101.9,318.91,100.94,318.68,100Z" fill="#053855" opacity="0.44"/><polyline points="314.54 118.65 318.67 116.94 318.67 114.44" fill="#053855" opacity="0.1"/><polygon points="327.81 130.54 333.88 127.05 332.34 122.46 326.88 124.06 327.81 130.54" fill="#053855" opacity="0.1"/><ellipse cx="324.4" cy="105.22" rx="2.73" ry="4.7" transform="translate(-16.01 125.94) rotate(-21.45)" fill="#053855" opacity="0.1"/><polygon points="335.07 91.71 341.13 88.21 345.43 96.39 339.37 99.88 335.07 91.71" fill="#053855" opacity="0.1"/><polygon points="345.67 123.58 339.61 127.08 335.03 130.54 341.09 127.05 345.67 123.58" fill="#053855" opacity="0.1"/><polyline points="314.54 118.65 318.67 116.94 318.67 114.44" fill="#053855" opacity="0.1"/><polygon points="327.81 130.54 333.88 127.05 332.34 122.46 326.88 124.06 327.81 130.54" fill="#053855" opacity="0.44"/><path d="M312.62,103.48l-.44-1.55-4.93-2.69v-8.4c0-.16,4.77,2.8,4.77,2.8l.22-.47a11.27,11.27,0,0,1,1.45-3.63l-3.47-6.41,4.41-3.35,3.3,6.61,0,0a7.51,7.51,0,0,1,3.64.06V80.12l6.31,3.5v6.64a27.92,27.92,0,0,1,3.37,3.88l3.81-2.43,4.3,8.18-3.4,2.71.29,1.37a37.48,37.48,0,0,1,1.05,4.42l5.06,2.79v8.37l-4.82-2.87A10.84,10.84,0,0,1,336,121l3.61,6.13L335,130.54l-3.22-6.31h-4v6.31l-6-3.67v-6.2a24.88,24.88,0,0,1-3.63-4.5l-3.62,2.48-4.37-8.35,3.63-2.68-.36-1.25C313.12,105.4,312.84,104.43,312.62,103.48Z" fill="#68e1fd"/><ellipse cx="324.4" cy="105.22" rx="2.73" ry="4.7" transform="translate(-16.01 125.94) rotate(-21.45)" fill="#053855" opacity="0.44"/><polygon points="345.67 123.58 339.61 127.08 335.03 130.54 341.09 127.05 345.67 123.58" fill="#053855" opacity="0.44"/><polygon points="333.96 80.13 327.9 83.62 321.59 80.12 327.65 76.63 333.96 80.13" fill="#68e1fd"/><polygon points="333.96 80.1 327.91 83.62 321.59 80.15 327.64 76.63 333.96 80.1" fill="#053855" opacity="0.44"/><polygon points="348.43 107.67 342.37 111.17 342.37 119.54 348.43 116.04 348.43 107.67" fill="#68e1fd"/><polygon points="348.43 107.67 342.37 111.17 342.37 119.54 348.43 116.04 348.43 107.67" fill="#053855" opacity="0.44"/><path d="M354.79,92.44c-.05.11-.33,1.13-.54.92s-1.35.27-1.35.27l-3.17-4,.42-1.32H353" fill="#68e1fd"/><path d="M339.48,75.08l-.3-1-3.33-1.82V66.54c0-.11,3.22,1.89,3.22,1.89l.15-.32a7.62,7.62,0,0,1,1-2.45l-2.35-4.33,3-2.27,2.23,4.47h0a5.07,5.07,0,0,1,2.46,0V59.3l4.26,2.36v4.48a18.86,18.86,0,0,1,2.28,2.62l2.57-1.64,2.9,5.52-2.3,1.83.2.93a25.32,25.32,0,0,1,.71,3l3.42,1.88v5.65L356.33,84a7.33,7.33,0,0,1-1.05,2.9L357.72,91l-3.09,2.34-2.17-4.26h-2.7v4.26l-4.07-2.48V86.7a16.81,16.81,0,0,1-2.46-3l-2.45,1.67-3-5.64,2.45-1.81L340,77C339.82,76.37,339.63,75.72,339.48,75.08Z" fill="#68e1fd"/><polyline points="331.75 68.9 335.52 66.62 336.46 68.02 335.01 71.07" fill="#68e1fd"/><polyline points="336.69 87.69 339.47 86.53 339.47 84.84" fill="#68e1fd"/><polygon points="345.65 95.72 349.75 93.36 348.71 90.26 345.02 91.35 345.65 95.72" fill="#68e1fd"/><polygon points="340.84 59.07 336.74 61.43 338.99 65.91 341.45 65.95 342.02 61.43 340.84 59.07" fill="#68e1fd"/><ellipse cx="343.35" cy="78.62" rx="1.85" ry="3.18" transform="translate(-4.96 131.02) rotate(-21.45)" fill="#68e1fd"/><polygon points="349.81 61.66 345.71 64.03 341.45 61.66 345.55 59.3 349.81 61.66" fill="#68e1fd"/><polygon points="350.56 69.49 354.65 67.13 357.56 72.65 353.46 75.01 350.56 69.49" fill="#68e1fd"/><polygon points="357.72 91.02 353.62 93.39 350.53 95.72 354.63 93.36 357.72 91.02" fill="#68e1fd"/><path d="M354.79,92.44c-.05.11-.33,1.13-.54.92s-1.35.27-1.35.27l-3.17-4,.42-1.32H353" fill="#053855" opacity="0.44"/><path d="M339.48,75.08l-.3-1-3.33-1.82V66.54c0-.11,3.22,1.89,3.22,1.89l.15-.32a7.62,7.62,0,0,1,1-2.45l-2.35-4.33,3-2.27,2.23,4.47h0a5.07,5.07,0,0,1,2.46,0V59.3l4.26,2.36v4.48a18.86,18.86,0,0,1,2.28,2.62l2.57-1.64,2.9,5.52-2.3,1.83.2.93a25.32,25.32,0,0,1,.71,3l3.42,1.88v5.65L356.33,84a7.33,7.33,0,0,1-1.05,2.9L357.72,91l-3.09,2.34-2.17-4.26h-2.7v4.26l-4.07-2.48V86.7a16.81,16.81,0,0,1-2.46-3l-2.45,1.67-3-5.64,2.45-1.81L340,77C339.82,76.37,339.63,75.72,339.48,75.08Z" fill="#68e1fd"/><polyline points="331.75 68.9 335.52 66.62 336.46 68.02 335.01 71.07" fill="#053855" opacity="0.44"/><polyline points="336.69 87.69 339.47 86.53 339.47 84.84" fill="#68e1fd"/><polygon points="345.65 95.72 349.75 93.36 348.71 90.26 345.02 91.35 345.65 95.72" fill="#68e1fd"/><polygon points="340.84 59.07 336.74 61.43 338.99 65.91 341.45 65.95 342.02 61.43 340.84 59.07" fill="#68e1fd"/><ellipse cx="343.35" cy="78.62" rx="1.85" ry="3.18" transform="translate(-4.96 131.02) rotate(-21.45)" fill="#68e1fd"/><polygon points="350.56 69.49 354.65 67.13 357.56 72.65 353.46 75.01 350.56 69.49" fill="#68e1fd"/><polygon points="357.72 91.02 353.62 93.39 350.53 95.72 354.63 93.36 357.72 91.02" fill="#68e1fd"/><path d="M339.48,75.08l-.3-1-3.33-1.82V66.54c0-.11,3.22,1.89,3.22,1.89l.15-.32a7.62,7.62,0,0,1,1-2.45l-2.35-4.33,3-2.27,2.23,4.47h0a5.07,5.07,0,0,1,2.46,0V59.3l4.26,2.36v4.48a18.86,18.86,0,0,1,2.28,2.62l2.57-1.64,2.9,5.52-2.3,1.83.2.93a25.32,25.32,0,0,1,.71,3l3.42,1.88v5.65L356.33,84a7.33,7.33,0,0,1-1.05,2.9L357.72,91l-3.09,2.34-2.17-4.26h-2.7v4.26l-4.07-2.48V86.7a16.81,16.81,0,0,1-2.46-3l-2.45,1.67-3-5.64,2.45-1.81L340,77C339.82,76.37,339.63,75.72,339.48,75.08Z" fill="#053855" opacity="0.44"/><polyline points="336.69 87.69 339.47 86.53 339.47 84.84" fill="#053855" opacity="0.1"/><polygon points="345.65 95.72 349.75 93.36 348.71 90.26 345.02 91.35 345.65 95.72" fill="#053855" opacity="0.1"/><ellipse cx="343.35" cy="78.62" rx="1.85" ry="3.18" transform="translate(-4.96 131.02) rotate(-21.45)" fill="#053855" opacity="0.1"/><polygon points="350.56 69.49 354.65 67.13 357.56 72.65 353.46 75.01 350.56 69.49" fill="#053855" opacity="0.1"/><polygon points="357.72 91.02 353.62 93.39 350.53 95.72 354.63 93.36 357.72 91.02" fill="#053855" opacity="0.1"/><polyline points="336.69 87.69 339.47 86.53 339.47 84.84" fill="#053855" opacity="0.1"/><polygon points="345.65 95.72 349.75 93.36 348.71 90.26 345.02 91.35 345.65 95.72" fill="#053855" opacity="0.44"/><path d="M335.39,77.44l-.3-1-3.33-1.82V68.9c0-.11,3.22,1.89,3.22,1.89l.15-.32a7.62,7.62,0,0,1,1-2.45l-2.35-4.33,3-2.27L339,65.89h0a5.07,5.07,0,0,1,2.46,0V61.66L345.71,64v4.48A18.86,18.86,0,0,1,348,71.13l2.57-1.64,2.9,5.52-2.3,1.83.2.93a25.32,25.32,0,0,1,.71,3l3.42,1.88v5.65l-3.25-1.94a7.33,7.33,0,0,1-1.05,2.9l2.44,4.14-3.09,2.34-2.17-4.26h-2.7v4.26l-4.07-2.48V89.06a16.81,16.81,0,0,1-2.46-3l-2.45,1.67-3-5.64,2.45-1.81-.24-.85C335.72,78.74,335.54,78.08,335.39,77.44Z" fill="#68e1fd"/><ellipse cx="343.35" cy="78.62" rx="1.85" ry="3.18" transform="translate(-4.96 131.02) rotate(-21.45)" fill="#053855" opacity="0.44"/><polygon points="357.72 91.02 353.62 93.39 350.53 95.72 354.63 93.36 357.72 91.02" fill="#053855" opacity="0.44"/><polygon points="349.81 61.66 345.71 64.03 341.45 61.66 345.55 59.3 349.81 61.66" fill="#68e1fd"/><polygon points="349.81 61.65 345.72 64.03 341.45 61.68 345.54 59.3 349.81 61.65" fill="#053855" opacity="0.44"/><polygon points="359.58 80.27 355.49 82.63 355.49 88.29 359.58 85.93 359.58 80.27" fill="#68e1fd"/><polygon points="359.58 80.27 355.49 82.63 355.49 88.29 359.58 85.93 359.58 80.27" fill="#053855" opacity="0.44"/></svg>